<svg width="8" height="12" viewBox="0 0 8 12" fill="none" xmlns="http://www.w3.org/2000/svg">
<path d="M7.6452 2.18571L2.93112 6.00513L7.6452 9.82455C7.75769 9.91569 7.84691 10.0239 7.90779 10.143C7.96867 10.262 8 10.3897 8 10.5185C8 10.6474 7.96867 10.7751 7.90779 10.8941C7.84691 11.0132 7.75769 11.1214 7.6452 11.2125C7.53272 11.3037 7.39918 11.376 7.25221 11.4253C7.10524 11.4746 6.94773 11.5 6.78865 11.5C6.62957 11.5 6.47205 11.4746 6.32509 11.4253C6.17812 11.376 6.04458 11.3037 5.93209 11.2125L0.355378 6.6942C-0.11846 6.31029 -0.11846 5.69013 0.355378 5.30621L5.9321 0.787878C6.0445 0.696622 6.17801 0.624224 6.32499 0.574825C6.47197 0.525428 6.62953 0.5 6.78865 0.5C6.94777 0.5 7.10533 0.525428 7.25231 0.574825C7.39929 0.624224 7.5328 0.696622 7.6452 0.787878C8.10689 1.17179 8.11904 1.8018 7.6452 2.18571Z" fill="white"/>
</svg>
