<svg width="8" height="12" viewBox="0 0 8 12" fill="none" xmlns="http://www.w3.org/2000/svg">
<path d="M0.354796 2.18571L5.06888 6.00513L0.354797 9.82455C0.242312 9.91569 0.153085 10.0239 0.0922094 10.143C0.0313333 10.262 -4.73493e-08 10.3897 -4.29007e-08 10.5185C-3.84521e-08 10.6474 0.0313333 10.7751 0.0922094 10.8941C0.153085 11.0132 0.242312 11.1214 0.354797 11.2125C0.467281 11.3037 0.600819 11.376 0.747787 11.4253C0.894755 11.4746 1.05227 11.5 1.21135 11.5C1.37043 11.5 1.52795 11.4746 1.67491 11.4253C1.82188 11.376 1.95542 11.3037 2.06791 11.2125L7.64462 6.6942C8.11846 6.31029 8.11846 5.69013 7.64462 5.30621L2.0679 0.787878C1.9555 0.696622 1.82199 0.624224 1.67501 0.574825C1.52803 0.525428 1.37047 0.5 1.21135 0.5C1.05223 0.5 0.894667 0.525428 0.747688 0.574825C0.600709 0.624224 0.467198 0.696622 0.354796 0.787878C-0.106893 1.17179 -0.119042 1.8018 0.354796 2.18571Z" fill="white"/>
</svg>
