<svg width="125" height="126" viewBox="0 0 125 126" fill="none" xmlns="http://www.w3.org/2000/svg">
<path d="M53.75 74.25L40.3125 60.8125C39.1667 59.6667 37.7083 59.0938 35.9375 59.0938C34.1667 59.0938 32.7083 59.6667 31.5625 60.8125C30.4167 61.9583 29.8438 63.4167 29.8438 65.1875C29.8438 66.9583 30.4167 68.4167 31.5625 69.5625L49.375 87.375C50.625 88.625 52.0833 89.25 53.75 89.25C55.4167 89.25 56.875 88.625 58.125 87.375L93.4375 52.0625C94.5834 50.9167 95.1563 49.4583 95.1563 47.6875C95.1563 45.9167 94.5834 44.4583 93.4375 43.3125C92.2917 42.1667 90.8333 41.5938 89.0625 41.5938C87.2917 41.5938 85.8333 42.1667 84.6875 43.3125L53.75 74.25ZM62.5 125.5C53.8542 125.5 45.7292 123.858 38.125 120.575C30.5208 117.292 23.9063 112.84 18.2813 107.219C12.6563 101.594 8.20417 94.9792 4.925 87.375C1.64583 79.7708 0.00416667 71.6458 0 63C0 54.3542 1.64167 46.2292 4.925 38.625C8.20833 31.0208 12.6604 24.4063 18.2813 18.7813C23.9063 13.1563 30.5208 8.70417 38.125 5.425C45.7292 2.14583 53.8542 0.504167 62.5 0.5C71.1458 0.5 79.2708 2.14167 86.875 5.425C94.4792 8.70833 101.094 13.1604 106.719 18.7813C112.344 24.4063 116.798 31.0208 120.081 38.625C123.365 46.2292 125.004 54.3542 125 63C125 71.6458 123.358 79.7708 120.075 87.375C116.792 94.9792 112.34 101.594 106.719 107.219C101.094 112.844 94.4792 117.298 86.875 120.581C79.2708 123.865 71.1458 125.504 62.5 125.5Z" fill="#56EA4C"/>
<path d="M53.75 74.25L40.3125 60.8125C39.1667 59.6667 37.7083 59.0938 35.9375 59.0938C34.1667 59.0938 32.7083 59.6667 31.5625 60.8125C30.4167 61.9583 29.8438 63.4167 29.8438 65.1875C29.8438 66.9583 30.4167 68.4167 31.5625 69.5625L49.375 87.375C50.625 88.625 52.0833 89.25 53.75 89.25C55.4167 89.25 56.875 88.625 58.125 87.375L93.4375 52.0625C94.5834 50.9167 95.1563 49.4583 95.1563 47.6875C95.1563 45.9167 94.5834 44.4583 93.4375 43.3125C92.2917 42.1667 90.8333 41.5938 89.0625 41.5938C87.2917 41.5938 85.8333 42.1667 84.6875 43.3125L53.75 74.25Z" fill="white"/>
</svg>
