<svg width="125" height="126" viewBox="0 0 125 126" fill="none" xmlns="http://www.w3.org/2000/svg">
<path d="M62.5 0.5C27.9375 0.5 0 28.4375 0 63C0 97.5625 27.9375 125.5 62.5 125.5C97.0625 125.5 125 97.5625 125 63C125 28.4375 97.0625 0.5 62.5 0.5ZM89.375 89.875C88.7968 90.4544 88.11 90.9141 87.3539 91.2277C86.5978 91.5413 85.7873 91.7028 84.9688 91.7028C84.1502 91.7028 83.3397 91.5413 82.5836 91.2277C81.8275 90.9141 81.1407 90.4544 80.5625 89.875L62.5 71.8125L44.4375 89.875C43.2689 91.0436 41.6839 91.7001 40.0312 91.7001C38.3786 91.7001 36.7936 91.0436 35.625 89.875C34.4564 88.7064 33.7999 87.1214 33.7999 85.4688C33.7999 84.6504 33.9611 83.8401 34.2742 83.0841C34.5874 82.3281 35.0464 81.6411 35.625 81.0625L53.6875 63L35.625 44.9375C34.4564 43.7689 33.7999 42.1839 33.7999 40.5312C33.7999 38.8786 34.4564 37.2936 35.625 36.125C36.7936 34.9564 38.3786 34.2999 40.0312 34.2999C41.6839 34.2999 43.2689 34.9564 44.4375 36.125L62.5 54.1875L80.5625 36.125C81.1411 35.5464 81.8281 35.0874 82.5841 34.7742C83.3401 34.4611 84.1504 34.2999 84.9688 34.2999C85.7871 34.2999 86.5974 34.4611 87.3534 34.7742C88.1094 35.0874 88.7964 35.5464 89.375 36.125C89.9536 36.7036 90.4126 37.3906 90.7258 38.1466C91.039 38.9026 91.2001 39.7129 91.2001 40.5312C91.2001 41.3496 91.039 42.1599 90.7258 42.9159C90.4126 43.6719 89.9536 44.3589 89.375 44.9375L71.3125 63L89.375 81.0625C91.75 83.4375 91.75 87.4375 89.375 89.875Z" fill="#E73232"/>
<path d="M89.375 89.875C88.7968 90.4544 88.11 90.9141 87.3539 91.2277C86.5978 91.5413 85.7873 91.7028 84.9688 91.7028C84.1502 91.7028 83.3397 91.5413 82.5836 91.2277C81.8275 90.9141 81.1407 90.4544 80.5625 89.875L62.5 71.8125L44.4375 89.875C43.2689 91.0436 41.6839 91.7001 40.0312 91.7001C38.3786 91.7001 36.7936 91.0436 35.625 89.875C34.4564 88.7064 33.7999 87.1214 33.7999 85.4688C33.7999 84.6504 33.9611 83.8401 34.2742 83.0841C34.5874 82.3281 35.0464 81.6411 35.625 81.0625L53.6875 63L35.625 44.9375C34.4564 43.7689 33.7999 42.1839 33.7999 40.5312C33.7999 38.8786 34.4564 37.2936 35.625 36.125C36.7936 34.9564 38.3786 34.2999 40.0312 34.2999C41.6839 34.2999 43.2689 34.9564 44.4375 36.125L62.5 54.1875L80.5625 36.125C81.1411 35.5464 81.8281 35.0874 82.5841 34.7742C83.3401 34.4611 84.1504 34.2999 84.9688 34.2999C85.7871 34.2999 86.5974 34.4611 87.3534 34.7742C88.1094 35.0874 88.7964 35.5464 89.375 36.125C89.9536 36.7036 90.4126 37.3906 90.7258 38.1466C91.039 38.9026 91.2001 39.7129 91.2001 40.5312C91.2001 41.3496 91.039 42.1599 90.7258 42.9159C90.4126 43.6719 89.9536 44.3589 89.375 44.9375L71.3125 63L89.375 81.0625C91.75 83.4375 91.75 87.4375 89.375 89.875Z" fill="white"/>
</svg>
